# xmcd
#
# Track frame offsets: 
#        150
#        18072
#        37167
#        59095
#        69280
#        88752
#        107167
#        128655
#        150290
#        167997
#        184495
#        202522
#        218235
#        239765
#        258020
#        276410
#        293835
#        307655
#
# Disc length: 4373 seconds
#
# Revision: 2
# Processed by: cddbd v1.5.2PL0 Copyright (c) Steve Scherf et al.
# Submitted via: ExactAudioCopyFreeDBPlugin 1.0
#
DISCID=fd111312
DTITLE=ZZ Top - ZZ Top Greatest Hits
DYEAR=1992
DGENRE=Rock
TTITLE0=Gimme All Your Lovin'
TTITLE1=Sharp Dressed Man
TTITLE2=Rough Boy
TTITLE3=Tush
TTITLE4=My Head's In Mississippi
TTITLE5=Pearl Necklace
TTITLE6=I'm Bad, I'm Nationwide
TTITLE7=Viva Las Vegas
TTITLE8=Doubleback
TTITLE9=Gun Love
TTITLE10=Got Me Under Pressure
TTITLE11=Give It Up
TTITLE12=Cheap Sunglasses
TTITLE13=Sleeping Bag
TTITLE14=Planet Of Women
TTITLE15=La Grange
TTITLE16=Tube Snake Boogie
TTITLE17=Legs
EXTD=
EXTT0=
EXTT1=
EXTT2=
EXTT3=
EXTT4=
EXTT5=
EXTT6=
EXTT7=
EXTT8=
EXTT9=
EXTT10=
EXTT11=
EXTT12=
EXTT13=
EXTT14=
EXTT15=
EXTT16=
EXTT17=
PLAYORDER=
